<svg width="80" height="100" viewBox="0 0 80 100" fill="none" xmlns="http://www.w3.org/2000/svg">
<path d="M64.0841 1.59998C70.2043 1.59998 75.1894 6.32558 75.1894 12.8C75.1894 14.2875 74.7778 16.6919 74.299 18L64.1088 40L53.9187 18C53.4426 16.6924 53.0283 14.2869 53.0283 12.8C53.0283 6.32558 57.9638 1.59998 64.0841 1.59998ZM64.1087 7.99998C61.486 7.99998 59.3598 10.149 59.3598 12.8C59.3598 15.4509 61.486 17.6 64.1087 17.6C66.7313 17.6 68.8575 15.4509 68.8575 12.8C68.8575 10.149 66.7313 7.99998 64.1087 7.99998ZM16.6452 35.2C23.6398 35.2 29.284 40.7163 29.284 48C29.284 49.6727 28.814 52.179 28.27 53.65L16.6205 78.4L4.97106 53.65C4.42408 52.1785 3.95703 49.6734 3.95703 48C3.95703 40.7163 9.65094 35.2 16.6452 35.2ZM60.8685 36.8L62.3525 40H46.6964C42.7228 40 39.5732 43.1835 39.5732 47.2C39.5732 51.2165 42.7228 54.4 46.6964 54.4H50.6537C57.2035 54.4 62.5257 59.7797 62.5257 66.4C62.5257 73.0204 57.2035 78.4 50.6537 78.4H18.3766L19.8853 75.2H50.6537C55.5044 75.2 59.3598 71.303 59.3598 66.4C59.3598 61.4971 55.5044 57.6 50.6537 57.6H46.6964C41.0236 57.6 36.4073 52.9339 36.4073 47.2C36.4073 41.4661 41.0236 36.8 46.6964 36.8H60.8685ZM16.6205 42.4C13.5607 42.4 11.0802 44.9072 11.0802 48C11.0802 51.0927 13.5607 53.6 16.6205 53.6C19.6803 53.6 22.1608 51.0927 22.1608 48C22.1608 44.9072 19.6803 42.4 16.6205 42.4Z" fill="black"/>
</svg>
