<svg width="93" height="66" viewBox="0 0 93 66" fill="none" xmlns="http://www.w3.org/2000/svg">
<path fill-rule="evenodd" clip-rule="evenodd" d="M19.4195 59.561C19.4195 60.6267 19.4195 61.6924 19.4195 62.7581C19.4195 64.2974 18.117 65.5999 16.5776 65.5999H4.26282C2.72347 65.5999 1.53935 64.2974 1.53935 62.7581C1.53935 54.4693 1.53935 46.1805 1.65776 37.8916C1.77617 27.9451 5.92058 25.1032 6.74946 24.1559H1.77617C0.828881 24.1559 0 23.327 0 22.3797V20.1299C0 19.1826 1.18412 18.2353 2.13141 18.1169L10.7755 16.9328L16.4592 6.27575C16.9329 5.56528 20.0116 2.24976 23.8007 1.6577C38.3653 -0.592118 54.1141 -0.592118 68.7971 1.6577C72.4679 2.24976 75.5466 5.56528 76.0202 6.27575L81.8224 16.9328L90.4664 18.1169C91.4137 18.2353 92.5978 19.1826 92.5978 20.1299V22.3797C92.5978 23.327 91.769 24.1559 90.8217 24.1559H85.73C86.6773 25.1032 90.8217 27.9451 90.9401 37.8916C90.9401 46.1805 91.0585 54.4693 91.0585 62.7581C91.0585 64.2974 89.756 65.5999 88.335 65.5999H75.9018C74.3624 65.5999 73.1783 64.2974 73.1783 62.7581C73.1783 61.6924 73.1783 60.6267 73.1783 59.561C55.1798 60.6267 37.2996 60.6267 19.4195 59.561ZM24.2744 6.7494C22.8534 7.10463 21.5509 7.69669 20.3668 9.47287C18.709 12.67 17.0513 15.9855 15.3935 19.1826H77.2043C75.5466 15.9855 73.8888 12.67 72.231 9.47287C71.0469 7.69669 69.7444 7.10463 68.3235 6.7494C53.6404 4.97323 38.9574 4.97323 24.2744 6.7494ZM85.2563 39.431C79.5726 40.4967 74.0072 41.2072 68.5603 42.3913C67.2578 43.1017 66.3105 44.2859 65.4816 45.7068C65.2448 46.2989 65.2448 47.2462 65.3632 48.1934C70.6917 47.3646 76.0202 46.5357 81.2303 45.5884C83.0065 44.9963 84.309 43.6938 85.2563 41.9176C85.4931 40.7335 85.4931 39.9046 85.2563 39.431ZM7.34152 39.431C12.9069 40.4967 18.4722 41.2072 23.9191 42.3913C25.2217 43.1017 26.2874 44.2859 27.1162 45.7068C27.2347 46.2989 27.2347 47.2462 27.1162 48.1934C21.7877 47.3646 16.5776 46.5357 11.2491 45.5884C9.47292 44.9963 8.1704 43.6938 7.2231 41.9176C7.10469 40.7335 7.10469 39.9046 7.34152 39.431Z" fill="black"/>
</svg>
