<svg width="60" height="56" viewBox="0 0 60 56" fill="none" xmlns="http://www.w3.org/2000/svg">
<path d="M59.25 24.5H42.375C36.7831 24.5 32.25 29.0331 32.25 34.625C32.25 40.2169 36.7831 44.75 42.375 44.75H59.25V49.25C59.25 52.9779 56.2279 56 52.5 56H7.5C3.77208 56 0.75 52.9779 0.75 49.25V20C0.75 16.2721 3.77208 13.25 7.5 13.25H52.5C56.2279 13.25 59.25 16.2721 59.25 20V24.5ZM59.25 29V40.25H42.375C39.2684 40.25 36.75 37.7316 36.75 34.625C36.75 31.5184 39.2684 29 42.375 29H59.25ZM42.375 38C44.239 38 45.75 36.4889 45.75 34.625C45.75 32.761 44.239 31.25 42.375 31.25C40.511 31.25 39 32.761 39 34.625C39 36.4889 40.511 38 42.375 38Z" fill="black"/>
<path d="M0.75 14.0468V12.6253C0.75 9.28406 3.19444 6.4456 6.4987 5.94996L42.4987 0.549964C46.1854 -0.00303802 49.6223 2.53731 50.1753 6.22398C50.225 6.55543 50.25 6.89013 50.25 7.23882L50.2273 10.9999H7.5C5.01472 10.9999 2.76472 12.0073 1.13604 13.636C1.00315 13.7689 0.874404 13.9059 0.75 14.0468Z" fill="black"/>
</svg>
